<svg xmlns="http://www.w3.org/2000/svg" xmlns:xlink="http://www.w3.org/1999/xlink" width="500" zoomAndPan="magnify" viewBox="0 0 375 374.999991" height="500" preserveAspectRatio="xMidYMid meet" version="1.2"><defs><clipPath id="ab34b84e87"><path d="M 4 91 L 125 91 L 125 178 L 4 178 Z M 4 91 "/></clipPath><clipPath id="b7f0b3abcf"><path d="M -15.125 155.292969 L 128.398438 75.425781 L 154.65625 122.613281 L 11.132812 202.480469 Z M -15.125 155.292969 "/></clipPath><clipPath id="014493da1c"><path d="M -15.125 155.292969 L 128.398438 75.425781 L 218.113281 236.648438 L 74.585938 316.511719 Z M -15.125 155.292969 "/></clipPath></defs><g id="aaaa7ef2c0"><g clip-rule="nonzero" clip-path="url(#ab34b84e87)"><g clip-rule="nonzero" clip-path="url(#b7f0b3abcf)"><g clip-rule="nonzero" clip-path="url(#014493da1c)"><path style=" stroke:none;fill-rule:nonzero;fill:#f472b6;fill-opacity:1;" d="M 116.28125 94.59375 C 109.898438 90.769531 101.265625 91.171875 93.203125 95.660156 C 74.835938 105.882812 71.144531 129.882812 70.636719 144.015625 C 58.351562 137.015625 36.070312 127.59375 17.742188 137.789062 C 6.121094 144.257812 1.578125 155.945312 6.859375 165.433594 C 16.222656 182.261719 41.332031 182.664062 79.53125 161.410156 C 117.726562 140.152344 130.113281 114.777344 122.570312 101.226562 C 121.066406 98.53125 119.007812 96.222656 116.28125 94.59375 Z M 31.8125 163.546875 C 23.554688 163.820312 19.207031 161.386719 17.890625 159.019531 C 16.207031 155.988281 18.726562 151.710938 23.886719 148.835938 C 36.320312 141.917969 53.03125 148.796875 63.164062 154.421875 C 48.332031 161.476562 38.113281 163.339844 31.8125 163.546875 Z M 111.925781 110.382812 C 111.808594 117.78125 104.089844 129.847656 83.503906 143.101562 C 84.109375 131.503906 87.117188 113.652344 99.40625 106.816406 C 104.160156 104.171875 107.855469 104.425781 109.726562 105.546875 C 111.21875 106.4375 111.960938 108.066406 111.925781 110.382812 Z M 111.925781 110.382812 "/></g></g></g><g style="fill:#ffecf2;fill-opacity:1;"><g transform="translate(51.346345, 255.627197)"><path style="stroke:none" d="M 29.394531 -13.980469 C 20.085938 -18.160156 12.609375 -23.949219 6.960938 -31.335938 C 1.128906 -38.96875 -1.785156 -48.011719 -1.785156 -58.464844 C -1.785156 -68.328125 0.738281 -76.980469 5.785156 -84.417969 C 10.773438 -91.761719 17.667969 -97.480469 26.476562 -101.566406 C 35.101562 -105.566406 45.097656 -107.566406 56.464844 -107.566406 C 60.144531 -107.566406 63.988281 -107.175781 67.996094 -106.394531 C 71.324219 -105.746094 73.867188 -105.421875 75.617188 -105.421875 C 78.71875 -105.421875 81.199219 -105.808594 83.066406 -106.585938 C 85.015625 -107.394531 86.570312 -108.324219 87.730469 -109.382812 C 89.074219 -110.609375 90.183594 -111.832031 91.0625 -113.050781 C 92.328125 -114.8125 93.585938 -116.320312 94.839844 -117.574219 C 96.9375 -119.667969 99.4375 -120.714844 102.347656 -120.714844 C 105.734375 -120.714844 108.808594 -119.335938 111.570312 -116.574219 C 113.757812 -114.382812 115.511719 -111.792969 116.832031 -108.796875 C 118.183594 -105.726562 118.859375 -102.8125 118.859375 -100.0625 C 118.859375 -98.101562 118.335938 -96.3125 117.289062 -94.6875 C 116.359375 -93.25 115.0625 -92.03125 113.398438 -91.03125 C 110.640625 -89.378906 107.53125 -88.554688 104.0625 -88.554688 C 100.910156 -88.554688 98.328125 -88.722656 96.320312 -89.054688 C 94.328125 -89.386719 92.558594 -89.8125 91.003906 -90.328125 C 89.835938 -90.71875 88.570312 -91.089844 87.214844 -91.441406 C 86.105469 -91.726562 84.550781 -91.910156 82.550781 -91.988281 L 82.765625 -97.34375 L 84.792969 -102.304688 C 94.167969 -98.472656 101.464844 -92.757812 106.691406 -85.160156 C 111.945312 -77.527344 114.570312 -68.628906 114.570312 -58.464844 C 114.570312 -49.933594 112.6875 -42.195312 108.917969 -35.253906 C 105.140625 -28.292969 99.789062 -22.609375 92.859375 -18.203125 C 86.015625 -13.855469 77.992188 -11.15625 68.789062 -10.113281 C 69.402344 -10.1875 69.964844 -10.515625 70.476562 -11.089844 C 70.996094 -11.675781 71.257812 -12.269531 71.257812 -12.863281 C 71.257812 -13.382812 71.101562 -13.835938 70.785156 -14.21875 C 70.746094 -14.265625 70.710938 -14.304688 70.675781 -14.335938 L 70.679688 -14.335938 C 70.773438 -14.265625 70.917969 -14.191406 71.109375 -14.105469 C 72.78125 -13.347656 75.011719 -12.652344 77.804688 -12.015625 C 81.039062 -11.28125 84.480469 -10.402344 88.140625 -9.378906 C 92.09375 -8.273438 95.839844 -6.765625 99.382812 -4.863281 C 103.324219 -2.746094 106.539062 0.0898438 109.027344 3.644531 C 111.671875 7.425781 112.996094 12.167969 112.996094 17.867188 C 112.996094 25.375 110.410156 31.65625 105.234375 36.710938 C 100.511719 41.324219 94.351562 44.78125 86.75 47.085938 C 79.476562 49.285156 71.523438 50.386719 62.894531 50.386719 C 56.042969 50.386719 49.03125 49.636719 41.855469 48.128906 C 34.613281 46.609375 27.886719 44.351562 21.679688 41.347656 C 15.230469 38.226562 9.980469 34.402344 5.9375 29.871094 C 1.453125 24.851562 -0.785156 19.089844 -0.785156 12.578125 C -0.785156 10.644531 -0.0585938 8.6875 1.398438 6.703125 C 2.402344 5.339844 3.820312 3.871094 5.65625 2.296875 C 9.015625 -0.59375 13.070312 -3.277344 17.820312 -5.753906 C 20.734375 -7.261719 23.71875 -8.640625 26.769531 -9.890625 C 30.328125 -11.351562 33.839844 -12.078125 37.308594 -12.078125 C 40.015625 -12.078125 42.578125 -11.179688 45.003906 -9.378906 C 47.925781 -7.210938 49.386719 -4.132812 49.386719 -0.144531 C 49.386719 2.003906 49.066406 3.96875 48.425781 5.746094 C 48.070312 6.738281 47.703125 8.058594 47.320312 9.710938 C 46.984375 11.171875 46.8125 13.605469 46.8125 17.011719 C 46.8125 20.757812 47.800781 23.796875 49.769531 26.136719 C 51.507812 28.199219 54.074219 29.230469 57.464844 29.230469 C 61.15625 29.230469 63.996094 28.347656 65.980469 26.582031 C 67.785156 24.980469 68.683594 22.316406 68.683594 18.582031 C 68.683594 13.996094 67.890625 10.300781 66.304688 7.5 C 64.6875 4.640625 62.339844 2.207031 59.257812 0.207031 C 55.695312 -2.109375 51.476562 -4.328125 46.605469 -6.449219 L 29.441406 -13.957031 Z M 33.738281 -23.78125 L 50.882812 -16.277344 C 56.300781 -13.921875 61.042969 -11.421875 65.101562 -8.78125 C 69.644531 -5.828125 73.15625 -2.160156 75.636719 2.21875 C 78.148438 6.660156 79.40625 12.113281 79.40625 18.582031 C 79.40625 25.523438 77.304688 30.863281 73.105469 34.597656 C 69.085938 38.167969 63.871094 39.953125 57.464844 39.953125 C 50.75 39.953125 45.453125 37.648438 41.570312 33.042969 C 37.917969 28.710938 36.09375 23.367188 36.09375 17.011719 C 36.09375 12.792969 36.355469 9.554688 36.875 7.300781 C 37.351562 5.234375 37.839844 3.507812 38.339844 2.117188 C 38.558594 1.511719 38.667969 0.757812 38.667969 -0.144531 C 38.667969 -0.472656 38.636719 -0.699219 38.582031 -0.824219 C 38.597656 -0.792969 38.605469 -0.777344 38.617188 -0.769531 C 38.089844 -1.160156 37.652344 -1.359375 37.308594 -1.359375 C 35.25 -1.359375 33.089844 -0.894531 30.835938 0.0273438 C 28.074219 1.160156 25.390625 2.402344 22.777344 3.75 C 18.757812 5.847656 15.378906 8.074219 12.640625 10.425781 C 11.425781 11.472656 10.558594 12.347656 10.035156 13.058594 C 9.902344 13.238281 9.824219 13.359375 9.796875 13.425781 C 9.886719 13.207031 9.933594 12.925781 9.933594 12.578125 C 9.933594 16.363281 11.265625 19.746094 13.933594 22.730469 C 17.035156 26.207031 21.171875 29.195312 26.347656 31.695312 C 31.765625 34.316406 37.667969 36.296875 44.054688 37.636719 C 50.507812 38.992188 56.785156 39.667969 62.894531 39.667969 C 70.464844 39.667969 77.382812 38.71875 83.640625 36.824219 C 89.570312 35.027344 94.273438 32.433594 97.746094 29.042969 C 100.765625 26.089844 102.277344 22.367188 102.277344 17.867188 C 102.277344 14.421875 101.597656 11.726562 100.242188 9.792969 C 98.730469 7.628906 96.75 5.890625 94.308594 4.578125 C 91.460938 3.050781 88.445312 1.839844 85.25 0.945312 C 81.761719 -0.03125 78.488281 -0.867188 75.429688 -1.5625 C 71.933594 -2.359375 69.019531 -3.28125 66.691406 -4.335938 C 64.933594 -5.132812 63.539062 -6.152344 62.511719 -7.402344 C 61.195312 -9 60.535156 -10.820312 60.535156 -12.863281 C 60.535156 -14.984375 61.179688 -16.769531 62.460938 -18.214844 C 63.738281 -19.648438 65.441406 -20.496094 67.578125 -20.765625 C 75.148438 -21.625 81.65625 -23.785156 87.109375 -27.25 C 92.472656 -30.660156 96.601562 -35.03125 99.496094 -40.367188 C 102.398438 -45.714844 103.847656 -51.746094 103.847656 -58.464844 C 103.847656 -66.40625 101.851562 -73.28125 97.859375 -79.082031 C 93.84375 -84.921875 88.132812 -89.355469 80.734375 -92.382812 L 82.980469 -102.699219 C 85.742188 -102.589844 88.046875 -102.296875 89.894531 -101.820312 C 91.488281 -101.410156 92.992188 -100.96875 94.394531 -100.5 C 95.414062 -100.160156 96.644531 -99.871094 98.082031 -99.628906 C 99.507812 -99.394531 101.5 -99.273438 104.0625 -99.273438 C 105.550781 -99.273438 106.824219 -99.59375 107.878906 -100.226562 C 108.046875 -100.324219 108.175781 -100.417969 108.265625 -100.5 L 108.277344 -100.5 C 108.183594 -100.355469 108.136719 -100.207031 108.136719 -100.0625 C 108.136719 -101.3125 107.765625 -102.78125 107.019531 -104.476562 C 106.242188 -106.246094 105.230469 -107.75 103.988281 -108.992188 C 103.320312 -109.660156 102.773438 -109.996094 102.347656 -109.996094 C 102.359375 -109.996094 102.386719 -110.003906 102.433594 -110.027344 L 102.421875 -109.992188 C 101.578125 -109.148438 100.695312 -108.085938 99.769531 -106.796875 C 98.453125 -104.96875 96.847656 -103.1875 94.953125 -101.460938 C 92.871094 -99.5625 90.28125 -97.96875 87.179688 -96.683594 C 83.996094 -95.359375 80.140625 -94.699219 75.617188 -94.699219 C 73.175781 -94.699219 69.953125 -95.089844 65.945312 -95.871094 C 62.613281 -96.519531 59.453125 -96.84375 56.464844 -96.84375 C 46.671875 -96.84375 38.183594 -95.175781 30.988281 -91.839844 C 23.976562 -88.585938 18.53125 -84.105469 14.65625 -78.394531 C 10.839844 -72.777344 8.933594 -66.132812 8.933594 -58.464844 C 8.933594 -50.429688 11.117188 -43.558594 15.480469 -37.847656 C 20.027344 -31.894531 26.132812 -27.199219 33.789062 -23.757812 Z M 56.464844 -90.125 C 55.242188 -90.125 54 -89.25 52.734375 -87.492188 C 50.835938 -84.855469 49.320312 -80.945312 48.191406 -75.761719 C 46.988281 -70.230469 46.386719 -63.703125 46.386719 -56.175781 C 46.386719 -48.746094 46.988281 -42.265625 48.191406 -36.734375 C 49.320312 -31.550781 50.835938 -27.640625 52.734375 -25.003906 C 54 -23.25 55.242188 -22.371094 56.464844 -22.371094 C 57.660156 -22.371094 58.871094 -23.234375 60.089844 -24.960938 C 61.957031 -27.609375 63.457031 -31.535156 64.589844 -36.734375 C 65.796875 -42.265625 66.398438 -48.746094 66.398438 -56.175781 C 66.398438 -63.703125 65.796875 -70.230469 64.589844 -75.761719 C 63.457031 -80.964844 61.957031 -84.886719 60.089844 -87.535156 C 58.871094 -89.261719 57.660156 -90.125 56.464844 -90.125 Z M 56.464844 -100.847656 C 61.363281 -100.847656 65.492188 -98.46875 68.847656 -93.71875 C 71.550781 -89.886719 73.625 -84.660156 75.066406 -78.042969 C 76.433594 -71.761719 77.117188 -64.472656 77.117188 -56.175781 C 77.117188 -47.976562 76.433594 -40.738281 75.066406 -34.453125 C 73.625 -27.835938 71.550781 -22.613281 68.847656 -18.777344 C 65.492188 -14.027344 61.363281 -11.648438 56.464844 -11.648438 C 51.582031 -11.648438 47.441406 -14.011719 44.039062 -18.738281 C 41.269531 -22.578125 39.160156 -27.816406 37.71875 -34.453125 C 36.347656 -40.738281 35.664062 -47.976562 35.664062 -56.175781 C 35.664062 -64.472656 36.347656 -71.761719 37.71875 -78.042969 C 39.160156 -84.679688 41.269531 -89.917969 44.039062 -93.761719 C 47.441406 -98.484375 51.582031 -100.847656 56.464844 -100.847656 Z M 56.464844 -100.847656 "/></g></g><g style="fill:#ffecf2;fill-opacity:1;"><g transform="translate(164.832081, 255.627197)"><path style="stroke:none" d="M -5.359375 -84.765625 C -5.359375 -85.992188 -5.113281 -87.097656 -4.617188 -88.09375 C -3.890625 -89.546875 -2.777344 -90.574219 -1.277344 -91.171875 C -1.175781 -91.210938 -1.121094 -91.234375 -1.109375 -91.238281 C -1.488281 -91.050781 -1.855469 -90.777344 -2.21875 -90.414062 L -1.59375 -91.039062 L 4.5625 -94.074219 C 7.015625 -95.28125 9.800781 -96.625 12.917969 -98.109375 C 16.101562 -99.628906 19.359375 -101.074219 22.6875 -102.445312 C 26.050781 -103.828125 29.175781 -104.996094 32.066406 -105.941406 C 35.371094 -107.023438 38.167969 -107.566406 40.453125 -107.566406 C 42.285156 -107.566406 43.867188 -107.257812 45.199219 -106.644531 C 47.222656 -105.710938 48.574219 -104.222656 49.253906 -102.183594 C 49.820312 -100.492188 50.101562 -98.640625 50.101562 -96.628906 L 50.101562 -16.867188 C 50.101562 -13.25 50.394531 -10.359375 50.984375 -8.199219 C 51.449219 -6.496094 52.300781 -5.023438 53.535156 -3.789062 L 62.6875 5.359375 L -11.082031 5.359375 L -1.933594 -3.789062 C -0.699219 -5.023438 0.152344 -6.496094 0.617188 -8.199219 C 1.207031 -10.359375 1.5 -13.25 1.5 -16.867188 L 1.5 -71.757812 C 1.5 -72.273438 1.476562 -73.265625 1.433594 -74.734375 C 1.402344 -75.640625 1.195312 -76.589844 0.800781 -77.582031 C 0.808594 -77.570312 0.828125 -77.546875 0.867188 -77.511719 C 0.828125 -77.546875 0.714844 -77.59375 0.53125 -77.652344 L 0.125 -77.78125 L -0.253906 -77.96875 C -0.167969 -77.925781 -0.09375 -77.894531 -0.03125 -77.867188 C -0.0351562 -77.871094 -0.0546875 -77.878906 -0.0859375 -77.886719 C -0.21875 -77.9375 -0.40625 -77.996094 -0.648438 -78.070312 C -2.277344 -78.570312 -3.523438 -79.550781 -4.382812 -81.003906 C -5.035156 -82.105469 -5.359375 -83.359375 -5.359375 -84.765625 Z M 5.359375 -84.765625 C 5.359375 -85.3125 5.1875 -85.878906 4.847656 -86.457031 C 4.296875 -87.386719 3.519531 -88.003906 2.503906 -88.316406 C 3.40625 -88.039062 4.085938 -87.785156 4.542969 -87.558594 L 2.144531 -82.765625 L 3.757812 -87.875 C 7.195312 -86.792969 9.53125 -84.671875 10.777344 -81.511719 C 11.625 -79.363281 12.082031 -77.214844 12.148438 -75.070312 C 12.195312 -73.488281 12.222656 -72.386719 12.222656 -71.757812 L 12.222656 -16.867188 C 12.222656 -12.292969 11.800781 -8.460938 10.960938 -5.378906 C 9.996094 -1.84375 8.226562 1.214844 5.648438 3.789062 L 1.859375 0 L 1.859375 -5.359375 L 49.746094 -5.359375 L 49.746094 0 L 45.953125 3.789062 C 43.378906 1.214844 41.605469 -1.84375 40.640625 -5.378906 C 39.800781 -8.460938 39.382812 -12.292969 39.382812 -16.867188 L 39.382812 -96.628906 C 39.382812 -97.480469 39.28125 -98.203125 39.085938 -98.792969 C 39.382812 -97.898438 39.925781 -97.269531 40.707031 -96.910156 C 40.828125 -96.855469 40.910156 -96.824219 40.960938 -96.816406 C 40.84375 -96.835938 40.671875 -96.84375 40.453125 -96.84375 C 39.308594 -96.84375 37.625 -96.480469 35.402344 -95.753906 C 32.765625 -94.890625 29.886719 -93.816406 26.769531 -92.53125 C 23.621094 -91.234375 20.539062 -89.867188 17.53125 -88.433594 C 14.453125 -86.964844 11.710938 -85.640625 9.304688 -84.460938 L 3.945312 -81.816406 L 1.574219 -86.625 L 5.363281 -82.832031 C 4.75 -82.21875 3.863281 -81.679688 2.707031 -81.21875 C 3.730469 -81.628906 4.484375 -82.320312 4.972656 -83.296875 C 5.230469 -83.8125 5.359375 -84.304688 5.359375 -84.765625 Z M 25.445312 -156.738281 C 33.214844 -156.738281 39.527344 -154.308594 44.386719 -149.449219 C 49.246094 -144.59375 51.675781 -138.277344 51.675781 -130.507812 C 51.675781 -122.738281 49.246094 -116.425781 44.386719 -111.566406 C 39.527344 -106.707031 33.214844 -104.277344 25.445312 -104.277344 C 17.675781 -104.277344 11.359375 -106.707031 6.5 -111.566406 C 1.644531 -116.425781 -0.785156 -122.738281 -0.785156 -130.507812 C -0.785156 -138.277344 1.644531 -144.59375 6.5 -149.449219 C 11.359375 -154.308594 17.675781 -156.738281 25.445312 -156.738281 Z M 25.445312 -146.015625 C 20.632812 -146.015625 16.847656 -144.636719 14.082031 -141.871094 C 11.316406 -139.105469 9.933594 -135.316406 9.933594 -130.507812 C 9.933594 -125.699219 11.316406 -121.910156 14.082031 -119.144531 C 16.847656 -116.382812 20.632812 -115 25.445312 -115 C 30.253906 -115 34.039062 -116.382812 36.804688 -119.144531 C 39.570312 -121.910156 40.953125 -125.699219 40.953125 -130.507812 C 40.953125 -135.316406 39.570312 -139.105469 36.804688 -141.871094 C 34.039062 -144.636719 30.253906 -146.015625 25.445312 -146.015625 Z M 25.445312 -146.015625 "/></g></g><g style="fill:#ffecf2;fill-opacity:1;"><g transform="translate(215.286056, 255.627197)"><path style="stroke:none" d="M 49.316406 5.359375 L -11.511719 5.359375 L -2.359375 -3.789062 C -1.125 -5.023438 -0.277344 -6.496094 0.1875 -8.199219 C 0.777344 -10.359375 1.070312 -13.25 1.070312 -16.867188 L 1.070312 -101.632812 C 1.070312 -107.847656 1.878906 -113.792969 3.492188 -119.464844 C 5.164062 -125.339844 7.8125 -130.578125 11.441406 -135.183594 C 15.164062 -139.90625 19.984375 -143.636719 25.90625 -146.378906 C 31.769531 -149.09375 38.761719 -150.449219 46.886719 -150.449219 C 49.980469 -150.449219 53.21875 -150.132812 56.59375 -149.5 C 59.921875 -148.875 63.050781 -148.039062 65.984375 -146.992188 C 69.214844 -145.835938 71.898438 -144.40625 74.035156 -142.699219 C 77.042969 -140.292969 78.546875 -137.515625 78.546875 -134.367188 C 78.546875 -131.226562 77.882812 -127.921875 76.546875 -124.445312 C 75.390625 -121.421875 74.152344 -118.59375 72.835938 -115.960938 C 71.730469 -113.65625 70.78125 -111.636719 69.980469 -109.902344 C 69.203125 -108.203125 68.160156 -106.863281 66.859375 -105.878906 C 65.320312 -104.714844 63.570312 -104.132812 61.609375 -104.132812 C 58.222656 -104.132812 54.742188 -105.347656 51.164062 -107.777344 C 48.382812 -109.664062 45.414062 -111.863281 42.257812 -114.378906 C 39.445312 -116.621094 36.53125 -118.574219 33.507812 -120.238281 C 31.023438 -121.605469 28.433594 -122.289062 25.730469 -122.289062 C 25.261719 -122.289062 24.730469 -122.078125 24.140625 -121.652344 L 24.128906 -121.644531 C 24.140625 -121.664062 24.152344 -121.679688 24.160156 -121.695312 C 24.109375 -121.589844 24.085938 -121.382812 24.085938 -121.074219 C 24.085938 -118.839844 24.75 -116.5 26.078125 -114.058594 C 27.4375 -111.558594 29.34375 -109.457031 31.796875 -107.746094 C 34.019531 -106.195312 36.574219 -105.421875 39.453125 -105.421875 L 63.253906 -105.421875 L 63.253906 -87.554688 L 44.3125 -87.554688 L 44.3125 -92.914062 L 49.671875 -92.914062 L 49.671875 -16.867188 C 49.671875 -13.25 49.96875 -10.359375 50.554688 -8.199219 C 51.019531 -6.496094 51.871094 -5.023438 53.105469 -3.789062 L 62.257812 5.359375 Z M 49.316406 -5.359375 L 49.316406 0 L 45.523438 3.789062 C 42.949219 1.214844 41.175781 -1.84375 40.214844 -5.378906 C 39.371094 -8.460938 38.953125 -12.292969 38.953125 -16.867188 L 38.953125 -98.273438 L 57.890625 -98.273438 L 57.890625 -92.914062 L 52.53125 -92.914062 L 52.53125 -100.0625 L 57.890625 -100.0625 L 57.890625 -94.699219 L 39.453125 -94.699219 C 34.328125 -94.699219 29.730469 -96.117188 25.667969 -98.949219 C 21.828125 -101.625 18.828125 -104.953125 16.660156 -108.933594 C 14.464844 -112.972656 13.367188 -117.019531 13.367188 -121.074219 C 13.367188 -125.097656 14.871094 -128.191406 17.882812 -130.359375 C 20.34375 -132.125 22.957031 -133.007812 25.730469 -133.007812 C 30.269531 -133.007812 34.585938 -131.882812 38.679688 -129.628906 C 42.234375 -127.671875 45.652344 -125.382812 48.941406 -122.765625 C 51.882812 -120.417969 54.628906 -118.378906 57.1875 -116.648438 C 58.945312 -115.453125 60.417969 -114.855469 61.609375 -114.855469 C 61.171875 -114.855469 60.769531 -114.714844 60.398438 -114.433594 C 60.285156 -114.347656 60.199219 -114.269531 60.144531 -114.191406 C 60.164062 -114.21875 60.195312 -114.28125 60.238281 -114.378906 C 61.0625 -116.167969 62.066406 -118.292969 63.246094 -120.753906 C 64.40625 -123.078125 65.503906 -125.585938 66.539062 -128.28125 C 67.398438 -130.523438 67.828125 -132.550781 67.828125 -134.367188 C 67.828125 -134.085938 67.875 -133.867188 67.972656 -133.707031 C 67.886719 -133.851562 67.671875 -134.058594 67.335938 -134.328125 C 66.136719 -135.289062 64.484375 -136.144531 62.378906 -136.894531 C 59.976562 -137.753906 57.390625 -138.441406 54.617188 -138.960938 C 51.894531 -139.472656 49.316406 -139.726562 46.886719 -139.726562 C 40.335938 -139.726562 34.84375 -138.703125 30.410156 -136.648438 C 26.042969 -134.628906 22.523438 -131.925781 19.863281 -128.546875 C 17.105469 -125.050781 15.085938 -121.046875 13.804688 -116.535156 C 12.464844 -111.820312 11.792969 -106.851562 11.792969 -101.632812 L 11.792969 -16.867188 C 11.792969 -12.292969 11.371094 -8.460938 10.53125 -5.378906 C 9.566406 -1.84375 7.796875 1.214844 5.21875 3.789062 L 1.429688 0 L 1.429688 -5.359375 Z M 49.316406 -5.359375 "/></g></g><g style="fill:#ffecf2;fill-opacity:1;"><g transform="translate(291.324346, 255.627197)"><path style="stroke:none" d="M 0 -105.421875 C 1.914062 -105.421875 4.226562 -106.1875 6.929688 -107.722656 C 10.183594 -109.570312 13.5 -111.894531 16.878906 -114.695312 C 20.433594 -117.640625 23.800781 -120.566406 26.976562 -123.460938 C 30.296875 -126.488281 33.238281 -129.035156 35.796875 -131.105469 C 37.28125 -132.300781 38.609375 -133.226562 39.789062 -133.878906 C 41.503906 -134.824219 43.105469 -135.296875 44.597656 -135.296875 C 47.234375 -135.296875 49.3125 -134.332031 50.839844 -132.40625 C 52.0625 -130.859375 52.675781 -128.890625 52.675781 -126.503906 L 52.675781 -100.0625 L 47.316406 -100.0625 L 47.316406 -105.421875 L 64.96875 -105.421875 L 64.96875 -87.554688 L 47.316406 -87.554688 L 47.316406 -92.914062 L 52.675781 -92.914062 L 52.675781 -35.164062 C 52.675781 -31.492188 52.722656 -27.824219 52.816406 -24.152344 C 52.898438 -20.949219 53.335938 -18.117188 54.132812 -15.652344 C 54.695312 -13.902344 55.6875 -12.5625 57.109375 -11.632812 C 56.808594 -11.835938 56.425781 -11.9375 55.960938 -11.9375 C 57.082031 -11.9375 58.214844 -11.773438 59.363281 -11.445312 L 63.71875 -10.199219 L 63.21875 -5.699219 C 62.863281 -2.472656 61.25 0.246094 58.378906 2.457031 C 56.175781 4.15625 53.609375 5.433594 50.671875 6.289062 C 47.898438 7.097656 45.109375 7.503906 42.3125 7.503906 C 34.53125 7.503906 28.164062 6.140625 23.210938 3.40625 C 18.167969 0.625 14.324219 -3.144531 11.679688 -7.902344 C 9.222656 -12.328125 7.589844 -17.242188 6.777344 -22.648438 C 6.023438 -27.675781 5.644531 -32.753906 5.644531 -37.878906 L 5.644531 -83.765625 C 5.644531 -85.015625 5.582031 -86.269531 5.457031 -87.519531 C 5.445312 -87.65625 5.425781 -87.75 5.402344 -87.804688 C 5.410156 -87.789062 5.417969 -87.777344 5.429688 -87.765625 C 5.570312 -87.625 5.710938 -87.515625 5.855469 -87.4375 L 5.882812 -87.417969 C 5.5625 -87.507812 5.078125 -87.554688 4.429688 -87.554688 L -5.359375 -87.554688 L -5.359375 -105.421875 Z M 0 -94.699219 L 0 -100.0625 L 5.359375 -100.0625 L 5.359375 -92.914062 L 0 -92.914062 L 0 -98.273438 L 4.429688 -98.273438 C 8.199219 -98.273438 11.058594 -97.296875 13.011719 -95.347656 C 14.816406 -93.539062 15.855469 -91.285156 16.125 -88.585938 C 16.285156 -86.980469 16.367188 -85.371094 16.367188 -83.765625 L 16.367188 -37.878906 C 16.367188 -33.285156 16.703125 -28.738281 17.378906 -24.238281 C 18 -20.113281 19.222656 -16.402344 21.054688 -13.109375 C 22.699219 -10.148438 25.144531 -7.769531 28.390625 -5.980469 C 31.730469 -4.136719 36.371094 -3.214844 42.3125 -3.214844 C 44.089844 -3.214844 45.875 -3.476562 47.671875 -4.003906 C 49.3125 -4.480469 50.699219 -5.15625 51.832031 -6.03125 C 52.296875 -6.390625 52.542969 -6.675781 52.566406 -6.882812 L 57.890625 -6.289062 L 56.417969 -1.136719 C 56.234375 -1.1875 56.082031 -1.214844 55.960938 -1.214844 C 54.261719 -1.214844 52.6875 -1.695312 51.242188 -2.660156 C 47.707031 -4.972656 45.269531 -8.207031 43.929688 -12.363281 C 42.816406 -15.808594 42.207031 -19.644531 42.097656 -23.878906 C 42.003906 -27.640625 41.953125 -31.402344 41.953125 -35.164062 L 41.953125 -98.273438 L 59.609375 -98.273438 L 59.609375 -92.914062 L 54.246094 -92.914062 L 54.246094 -100.0625 L 59.609375 -100.0625 L 59.609375 -94.699219 L 41.953125 -94.699219 L 41.953125 -126.503906 C 41.953125 -126.589844 41.953125 -126.65625 41.945312 -126.707031 C 41.945312 -126.699219 41.953125 -126.675781 41.960938 -126.640625 C 42.039062 -126.347656 42.195312 -126.050781 42.433594 -125.75 C 42.777344 -125.316406 43.199219 -124.996094 43.707031 -124.78125 C 44.03125 -124.644531 44.328125 -124.574219 44.597656 -124.574219 C 44.902344 -124.574219 45.148438 -124.609375 45.335938 -124.671875 C 45.269531 -124.648438 45.148438 -124.589844 44.976562 -124.492188 C 44.34375 -124.144531 43.53125 -123.570312 42.535156 -122.765625 C 40.140625 -120.832031 37.363281 -118.421875 34.203125 -115.539062 C 30.898438 -112.527344 27.40625 -109.496094 23.71875 -106.441406 C 19.855469 -103.238281 16.023438 -100.558594 12.222656 -98.402344 C 7.875 -95.933594 3.800781 -94.699219 0 -94.699219 Z M 0 -94.699219 "/></g></g><g style="fill:#f472b6;fill-opacity:1;"><g transform="translate(51.346345, 255.627197)"><path style="stroke:none" d="M 31.59375 -18.875 C 23.113281 -22.675781 16.320312 -27.910156 11.21875 -34.578125 C 6.125 -41.253906 3.578125 -49.21875 3.578125 -58.46875 C 3.578125 -67.226562 5.789062 -74.867188 10.21875 -81.390625 C 14.644531 -87.921875 20.8125 -93.019531 28.71875 -96.6875 C 36.632812 -100.363281 45.878906 -102.203125 56.453125 -102.203125 C 59.796875 -102.203125 63.300781 -101.84375 66.96875 -101.125 C 70.632812 -100.414062 73.515625 -100.0625 75.609375 -100.0625 C 79.421875 -100.0625 82.585938 -100.582031 85.109375 -101.625 C 87.640625 -102.675781 89.710938 -103.9375 91.328125 -105.40625 C 92.953125 -106.882812 94.3125 -108.382812 95.40625 -109.90625 C 96.5 -111.4375 97.570312 -112.722656 98.625 -113.765625 C 99.675781 -114.816406 100.914062 -115.34375 102.34375 -115.34375 C 104.25 -115.34375 106.054688 -114.484375 107.765625 -112.765625 C 109.484375 -111.054688 110.867188 -109.007812 111.921875 -106.625 C 112.972656 -104.25 113.5 -102.0625 113.5 -100.0625 C 113.5 -98.25 112.546875 -96.769531 110.640625 -95.625 C 108.734375 -94.476562 106.539062 -93.90625 104.0625 -93.90625 C 101.195312 -93.90625 98.90625 -94.046875 97.1875 -94.328125 C 95.476562 -94.617188 93.976562 -94.976562 92.6875 -95.40625 C 91.40625 -95.832031 90.023438 -96.238281 88.546875 -96.625 C 87.066406 -97.007812 85.140625 -97.25 82.765625 -97.34375 C 91.148438 -93.90625 97.648438 -88.828125 102.265625 -82.109375 C 106.890625 -75.398438 109.203125 -67.519531 109.203125 -58.46875 C 109.203125 -50.84375 107.535156 -43.957031 104.203125 -37.8125 C 100.867188 -31.664062 96.128906 -26.632812 89.984375 -22.71875 C 83.835938 -18.8125 76.570312 -16.382812 68.1875 -15.4375 C 66.65625 -15.25 65.890625 -14.390625 65.890625 -12.859375 C 65.890625 -11.335938 66.890625 -10.125 68.890625 -9.21875 C 70.890625 -8.3125 73.460938 -7.5 76.609375 -6.78125 C 79.753906 -6.070312 83.113281 -5.21875 86.6875 -4.21875 C 90.257812 -3.21875 93.640625 -1.859375 96.828125 -0.140625 C 100.023438 1.578125 102.625 3.863281 104.625 6.71875 C 106.625 9.570312 107.625 13.285156 107.625 17.859375 C 107.625 23.867188 105.578125 28.875 101.484375 32.875 C 97.390625 36.875 91.957031 39.898438 85.1875 41.953125 C 78.425781 44.003906 70.992188 45.03125 62.890625 45.03125 C 56.410156 45.03125 49.765625 44.3125 42.953125 42.875 C 36.140625 41.445312 29.828125 39.328125 24.015625 36.515625 C 18.203125 33.703125 13.507812 30.296875 9.9375 26.296875 C 6.363281 22.296875 4.578125 17.722656 4.578125 12.578125 C 4.578125 11.054688 6.097656 8.984375 9.140625 6.359375 C 12.191406 3.742188 15.910156 1.289062 20.296875 -1 C 23.054688 -2.425781 25.890625 -3.734375 28.796875 -4.921875 C 31.703125 -6.117188 34.539062 -6.71875 37.3125 -6.71875 C 38.832031 -6.71875 40.332031 -6.171875 41.8125 -5.078125 C 43.289062 -3.984375 44.03125 -2.335938 44.03125 -0.140625 C 44.03125 1.378906 43.8125 2.734375 43.375 3.921875 C 42.945312 5.117188 42.519531 6.644531 42.09375 8.5 C 41.664062 10.363281 41.453125 13.203125 41.453125 17.015625 C 41.453125 22.054688 42.859375 26.242188 45.671875 29.578125 C 48.484375 32.921875 52.410156 34.59375 57.453125 34.59375 C 62.503906 34.59375 66.53125 33.257812 69.53125 30.59375 C 72.539062 27.925781 74.046875 23.921875 74.046875 18.578125 C 74.046875 13.054688 73.019531 8.484375 70.96875 4.859375 C 68.914062 1.234375 65.984375 -1.8125 62.171875 -4.28125 C 58.359375 -6.757812 53.878906 -9.117188 48.734375 -11.359375 C 43.585938 -13.597656 37.875 -16.101562 31.59375 -18.875 Z M 56.453125 -95.484375 C 53.410156 -95.484375 50.71875 -93.863281 48.375 -90.625 C 46.039062 -87.382812 44.226562 -82.804688 42.9375 -76.890625 C 41.65625 -70.984375 41.015625 -64.078125 41.015625 -56.171875 C 41.015625 -48.359375 41.65625 -41.5 42.9375 -35.59375 C 44.226562 -29.6875 46.039062 -25.113281 48.375 -21.875 C 50.71875 -18.632812 53.410156 -17.015625 56.453125 -17.015625 C 59.503906 -17.015625 62.171875 -18.632812 64.453125 -21.875 C 66.742188 -25.113281 68.53125 -29.6875 69.8125 -35.59375 C 71.101562 -41.5 71.75 -48.359375 71.75 -56.171875 C 71.75 -64.078125 71.101562 -70.984375 69.8125 -76.890625 C 68.53125 -82.804688 66.742188 -87.382812 64.453125 -90.625 C 62.171875 -93.863281 59.503906 -95.484375 56.453125 -95.484375 Z M 56.453125 -95.484375 "/></g></g><g style="fill:#f472b6;fill-opacity:1;"><g transform="translate(164.832081, 255.627197)"><path style="stroke:none" d="M 0 -84.765625 C 0 -85.523438 0.234375 -86 0.703125 -86.1875 C 1.179688 -86.382812 1.472656 -86.53125 1.578125 -86.625 C 2.710938 -87.195312 4.492188 -88.078125 6.921875 -89.265625 C 9.359375 -90.453125 12.125 -91.785156 15.21875 -93.265625 C 18.320312 -94.742188 21.492188 -96.148438 24.734375 -97.484375 C 27.972656 -98.816406 30.972656 -99.9375 33.734375 -100.84375 C 36.492188 -101.75 38.734375 -102.203125 40.453125 -102.203125 C 42.546875 -102.203125 43.78125 -101.628906 44.15625 -100.484375 C 44.539062 -99.335938 44.734375 -98.050781 44.734375 -96.625 L 44.734375 -16.859375 C 44.734375 -12.765625 45.09375 -9.40625 45.8125 -6.78125 C 46.53125 -4.164062 47.84375 -1.90625 49.75 0 L 1.859375 0 C 3.765625 -1.90625 5.070312 -4.164062 5.78125 -6.78125 C 6.5 -9.40625 6.859375 -12.765625 6.859375 -16.859375 L 6.859375 -71.75 C 6.859375 -72.320312 6.832031 -73.367188 6.78125 -74.890625 C 6.738281 -76.421875 6.40625 -77.972656 5.78125 -79.546875 C 5.164062 -81.117188 3.953125 -82.191406 2.140625 -82.765625 C 1.953125 -82.859375 1.546875 -83 0.921875 -83.1875 C 0.304688 -83.375 0 -83.898438 0 -84.765625 Z M 25.4375 -151.375 C 31.726562 -151.375 36.78125 -149.46875 40.59375 -145.65625 C 44.40625 -141.84375 46.3125 -136.789062 46.3125 -130.5 C 46.3125 -124.207031 44.40625 -119.15625 40.59375 -115.34375 C 36.78125 -111.539062 31.726562 -109.640625 25.4375 -109.640625 C 19.15625 -109.640625 14.109375 -111.539062 10.296875 -115.34375 C 6.484375 -119.15625 4.578125 -124.207031 4.578125 -130.5 C 4.578125 -136.789062 6.484375 -141.84375 10.296875 -145.65625 C 14.109375 -149.46875 19.15625 -151.375 25.4375 -151.375 Z M 25.4375 -151.375 "/></g></g><g style="fill:#f472b6;fill-opacity:1;"><g transform="translate(215.286056, 255.627197)"><path style="stroke:none" d="M 49.3125 0 L 1.421875 0 C 3.328125 -1.90625 4.640625 -4.164062 5.359375 -6.78125 C 6.078125 -9.40625 6.4375 -12.765625 6.4375 -16.859375 L 6.4375 -101.625 C 6.4375 -107.34375 7.171875 -112.796875 8.640625 -117.984375 C 10.117188 -123.179688 12.453125 -127.804688 15.640625 -131.859375 C 18.835938 -135.910156 23.007812 -139.125 28.15625 -141.5 C 33.300781 -143.882812 39.546875 -145.078125 46.890625 -145.078125 C 49.648438 -145.078125 52.550781 -144.789062 55.59375 -144.21875 C 58.644531 -143.644531 61.503906 -142.878906 64.171875 -141.921875 C 66.847656 -140.972656 69.019531 -139.832031 70.6875 -138.5 C 72.351562 -137.164062 73.1875 -135.785156 73.1875 -134.359375 C 73.1875 -131.878906 72.632812 -129.207031 71.53125 -126.34375 C 70.4375 -123.488281 69.269531 -120.828125 68.03125 -118.359375 C 66.894531 -115.972656 65.921875 -113.894531 65.109375 -112.125 C 64.296875 -110.363281 63.128906 -109.484375 61.609375 -109.484375 C 59.316406 -109.484375 56.835938 -110.390625 54.171875 -112.203125 C 51.503906 -114.015625 48.644531 -116.132812 45.59375 -118.5625 C 42.539062 -121 39.367188 -123.117188 36.078125 -124.921875 C 32.796875 -126.734375 29.347656 -127.640625 25.734375 -127.640625 C 24.109375 -127.640625 22.53125 -127.09375 21 -126 C 19.476562 -124.90625 18.71875 -123.257812 18.71875 -121.0625 C 18.71875 -117.914062 19.597656 -114.722656 21.359375 -111.484375 C 23.128906 -108.242188 25.585938 -105.53125 28.734375 -103.34375 C 31.878906 -101.15625 35.453125 -100.0625 39.453125 -100.0625 L 57.890625 -100.0625 L 57.890625 -92.90625 L 44.3125 -92.90625 L 44.3125 -16.859375 C 44.3125 -12.765625 44.664062 -9.40625 45.375 -6.78125 C 46.09375 -4.164062 47.40625 -1.90625 49.3125 0 Z M 49.3125 0 "/></g></g><g style="fill:#f472b6;fill-opacity:1;"><g transform="translate(291.324346, 255.627197)"><path style="stroke:none" d="M 0 -100.0625 C 2.851562 -100.0625 6.039062 -101.0625 9.5625 -103.0625 C 13.09375 -105.0625 16.671875 -107.5625 20.296875 -110.5625 C 23.921875 -113.5625 27.351562 -116.535156 30.59375 -119.484375 C 33.832031 -122.441406 36.6875 -124.921875 39.15625 -126.921875 C 41.632812 -128.929688 43.445312 -129.9375 44.59375 -129.9375 C 46.40625 -129.9375 47.3125 -128.789062 47.3125 -126.5 L 47.3125 -100.0625 L 59.609375 -100.0625 L 59.609375 -92.90625 L 47.3125 -92.90625 L 47.3125 -35.15625 C 47.3125 -31.445312 47.359375 -27.734375 47.453125 -24.015625 C 47.546875 -20.296875 48.066406 -16.957031 49.015625 -14 C 49.972656 -11.050781 51.691406 -8.765625 54.171875 -7.140625 C 54.742188 -6.765625 55.335938 -6.578125 55.953125 -6.578125 C 56.578125 -6.578125 57.222656 -6.484375 57.890625 -6.296875 C 57.703125 -4.578125 56.769531 -3.070312 55.09375 -1.78125 C 53.425781 -0.5 51.445312 0.472656 49.15625 1.140625 C 46.875 1.804688 44.59375 2.140625 42.3125 2.140625 C 35.445312 2.140625 29.941406 1 25.796875 -1.28125 C 21.648438 -3.570312 18.503906 -6.644531 16.359375 -10.5 C 14.222656 -14.363281 12.796875 -18.675781 12.078125 -23.4375 C 11.359375 -28.207031 11 -33.019531 11 -37.875 L 11 -83.765625 C 11 -85.191406 10.925781 -86.617188 10.78125 -88.046875 C 10.644531 -89.472656 10.125 -90.640625 9.21875 -91.546875 C 8.3125 -92.453125 6.71875 -92.90625 4.4375 -92.90625 L 0 -92.90625 Z M 0 -100.0625 "/></g></g><g style="fill:#000000;fill-opacity:1;"><g transform="translate(208.91492, 287.584959)"><path style="stroke:none" d="M 1.640625 0 L 1.640625 -16.5625 L 12.40625 -16.5625 L 12.40625 -14.046875 L 4.640625 -14.046875 L 4.640625 -9.546875 L 11.859375 -9.546875 L 11.859375 -7.03125 L 4.640625 -7.03125 L 4.640625 -2.515625 L 12.46875 -2.515625 L 12.46875 0 Z M 1.640625 0 "/></g></g><g style="fill:#000000;fill-opacity:1;"><g transform="translate(231.283038, 287.584959)"><path style="stroke:none" d="M 3.765625 0 L 0.5625 0 L 6.390625 -16.5625 L 10.09375 -16.5625 L 15.9375 0 L 12.734375 0 L 8.3125 -13.171875 L 8.171875 -13.171875 Z M 3.859375 -6.5 L 12.609375 -6.5 L 12.609375 -4.078125 L 3.859375 -4.078125 Z M 3.859375 -6.5 "/></g></g><g style="fill:#000000;fill-opacity:1;"><g transform="translate(256.297262, 287.584959)"><path style="stroke:none" d="M 10.640625 -12.015625 C 10.566406 -12.722656 10.25 -13.269531 9.6875 -13.65625 C 9.125 -14.050781 8.398438 -14.25 7.515625 -14.25 C 6.890625 -14.25 6.351562 -14.15625 5.90625 -13.96875 C 5.457031 -13.78125 5.113281 -13.523438 4.875 -13.203125 C 4.632812 -12.878906 4.515625 -12.507812 4.515625 -12.09375 C 4.515625 -11.75 4.59375 -11.445312 4.75 -11.1875 C 4.90625 -10.9375 5.117188 -10.722656 5.390625 -10.546875 C 5.671875 -10.378906 5.976562 -10.234375 6.3125 -10.109375 C 6.644531 -9.992188 6.984375 -9.894531 7.328125 -9.8125 L 8.890625 -9.421875 C 9.515625 -9.273438 10.113281 -9.078125 10.6875 -8.828125 C 11.269531 -8.585938 11.789062 -8.273438 12.25 -7.890625 C 12.707031 -7.515625 13.070312 -7.0625 13.34375 -6.53125 C 13.613281 -6 13.75 -5.375 13.75 -4.65625 C 13.75 -3.6875 13.5 -2.832031 13 -2.09375 C 12.507812 -1.351562 11.796875 -0.773438 10.859375 -0.359375 C 9.921875 0.046875 8.789062 0.25 7.46875 0.25 C 6.175781 0.25 5.054688 0.0507812 4.109375 -0.34375 C 3.160156 -0.75 2.421875 -1.332031 1.890625 -2.09375 C 1.359375 -2.863281 1.070312 -3.796875 1.03125 -4.890625 L 3.984375 -4.890625 C 4.023438 -4.316406 4.203125 -3.835938 4.515625 -3.453125 C 4.828125 -3.066406 5.234375 -2.78125 5.734375 -2.59375 C 6.242188 -2.40625 6.8125 -2.3125 7.4375 -2.3125 C 8.09375 -2.3125 8.664062 -2.410156 9.15625 -2.609375 C 9.65625 -2.804688 10.046875 -3.082031 10.328125 -3.4375 C 10.609375 -3.789062 10.75 -4.203125 10.75 -4.671875 C 10.75 -5.109375 10.625 -5.46875 10.375 -5.75 C 10.125 -6.03125 9.773438 -6.265625 9.328125 -6.453125 C 8.890625 -6.648438 8.375 -6.820312 7.78125 -6.96875 L 5.890625 -7.453125 C 4.523438 -7.804688 3.445312 -8.335938 2.65625 -9.046875 C 1.863281 -9.765625 1.46875 -10.71875 1.46875 -11.90625 C 1.46875 -12.882812 1.734375 -13.738281 2.265625 -14.46875 C 2.796875 -15.207031 3.519531 -15.78125 4.4375 -16.1875 C 5.351562 -16.59375 6.394531 -16.796875 7.5625 -16.796875 C 8.726562 -16.796875 9.753906 -16.59375 10.640625 -16.1875 C 11.535156 -15.78125 12.234375 -15.210938 12.734375 -14.484375 C 13.242188 -13.765625 13.507812 -12.941406 13.53125 -12.015625 Z M 10.640625 -12.015625 "/></g></g><g style="fill:#000000;fill-opacity:1;"><g transform="translate(279.612176, 287.584959)"><path style="stroke:none" d="M 0.5 -16.5625 L 3.890625 -16.5625 L 7.9375 -9.234375 L 8.109375 -9.234375 L 12.15625 -16.5625 L 15.546875 -16.5625 L 9.515625 -6.1875 L 9.515625 0 L 6.53125 0 L 6.53125 -6.1875 Z M 0.5 -16.5625 "/></g></g><path style="fill:none;stroke-width:5;stroke-linecap:round;stroke-linejoin:miter;stroke:#f472b6;stroke-opacity:1;stroke-miterlimit:4;" d="M 2.502492 2.498649 L 220.966342 2.498649 " transform="matrix(0.748479,0,0,0.748479,165.94725,295.739189)"/></g></svg>